<mxfile host="drawio-plugin" modified="2025-06-22T06:39:49.458Z" agent="5.0 (Windows NT 6.2; Win64; x64) AppleWebKit/537.36 (KHTML, like Gecko) Chrome/89.0.4389.114 Safari/537.36" etag="gY9ueAWgn_X33-3-ybEU" version="20.5.3" type="embed"><diagram id="23iRSUPoRavnBvh4doch" name="Page-1"><mxGraphModel dx="1562" dy="1095" grid="1" gridSize="10" guides="1" tooltips="1" connect="1" arrows="1" fold="1" page="1" pageScale="1" pageWidth="500" pageHeight="500" math="0" shadow="0"><root><mxCell id="0"/><mxCell id="1" parent="0"/><mxCell id="48" value="" style="strokeWidth=1;shadow=0;dashed=0;align=center;html=1;shape=mxgraph.mockup.buttons.multiButton;fillColor=#008cff;strokeColor=#666666;mainText=;subText=;" vertex="1" parent="1"><mxGeometry x="140" y="25" width="150" height="50" as="geometry"/></mxCell><mxCell id="49" value="Main Text" style="strokeWidth=1;shadow=0;dashed=0;align=center;html=1;shape=mxgraph.mockup.anchor;fontSize=16;fontColor=#ffffff;fontStyle=1;whiteSpace=wrap;" vertex="1" parent="48"><mxGeometry y="8" width="150" height="20" as="geometry"/></mxCell><mxCell id="50" value="Sub Text" style="strokeWidth=1;shadow=0;dashed=0;align=center;html=1;shape=mxgraph.mockup.anchor;fontSize=12;fontColor=#ffffff;fontStyle=1;whiteSpace=wrap;" vertex="1" parent="48"><mxGeometry y="30" width="150" height="10" as="geometry"/></mxCell><mxCell id="51" value="" style="strokeWidth=1;shadow=0;dashed=0;align=center;html=1;shape=mxgraph.mockup.rrect;rSize=10;strokeColor=#666666;" vertex="1" parent="1"><mxGeometry x="350" y="30" width="120" height="200" as="geometry"/></mxCell><mxCell id="52" value="Button 2" style="strokeColor=inherit;fillColor=inherit;gradientColor=inherit;strokeWidth=1;shadow=0;dashed=0;align=center;html=1;shape=mxgraph.mockup.rrect;rSize=0;fontSize=17;fontColor=#666666;fontStyle=1;resizeWidth=1;" vertex="1" parent="51"><mxGeometry width="120" height="50" relative="1" as="geometry"><mxPoint y="50" as="offset"/></mxGeometry></mxCell><mxCell id="53" value="Button 3" style="strokeColor=inherit;fillColor=inherit;gradientColor=inherit;strokeWidth=1;shadow=0;dashed=0;align=center;html=1;shape=mxgraph.mockup.rrect;rSize=0;fontSize=17;fontColor=#666666;fontStyle=1;resizeWidth=1;" vertex="1" parent="51"><mxGeometry width="120" height="50" relative="1" as="geometry"><mxPoint y="100" as="offset"/></mxGeometry></mxCell><mxCell id="54" value="Button 4" style="strokeColor=inherit;fillColor=inherit;gradientColor=inherit;strokeWidth=1;shadow=0;dashed=0;align=center;html=1;shape=mxgraph.mockup.bottomButton;rSize=10;fontSize=17;fontColor=#666666;fontStyle=1;resizeWidth=1;" vertex="1" parent="51"><mxGeometry y="1" width="120" height="50" relative="1" as="geometry"><mxPoint y="-50" as="offset"/></mxGeometry></mxCell><mxCell id="55" value="Button 1" style="strokeWidth=1;shadow=0;dashed=0;align=center;html=1;shape=mxgraph.mockup.topButton;rSize=10;fontSize=17;fontColor=#ffffff;fontStyle=1;fillColor=#008cff;strokeColor=#008cff;resizeWidth=1;" vertex="1" parent="51"><mxGeometry width="120" height="50" relative="1" as="geometry"/></mxCell><mxCell id="56" value="" style="verticalLabelPosition=bottom;shadow=0;dashed=0;align=center;html=1;verticalAlign=top;strokeWidth=1;shape=mxgraph.mockup.graphics.bubbleChart;strokeColor=none;strokeColor2=none;strokeColor3=#666666;fillColor2=#008cff;fillColor3=#dddddd;" vertex="1" parent="1"><mxGeometry x="30" y="250" width="440" height="220" as="geometry"/></mxCell><mxCell id="57" value="" style="verticalLabelPosition=bottom;shadow=0;dashed=0;align=center;html=1;verticalAlign=top;strokeWidth=1;shape=mxgraph.mockup.containers.userMale;strokeColor=#666666;strokeColor2=#008cff;" vertex="1" parent="1"><mxGeometry x="20" y="25" width="100" height="100" as="geometry"/></mxCell><mxCell id="58" value="GOOD" style="strokeWidth=1;shadow=0;dashed=0;align=center;html=1;shape=mxgraph.mockup.text.textBox;fontColor=#666666;align=left;fontSize=17;spacingLeft=4;spacingTop=-3;strokeColor=#666666;mainText=" vertex="1" parent="1"><mxGeometry x="20" y="135" width="100" height="30" as="geometry"/></mxCell><mxCell id="59" value="나는 UI 개발자다" style="text;html=1;resizable=0;autosize=1;align=center;verticalAlign=middle;points=[];fillColor=none;strokeColor=none;rounded=0;fontSize=30;fontStyle=1" vertex="1" parent="1"><mxGeometry x="80" y="180" width="250" height="50" as="geometry"/></mxCell></root></mxGraphModel></diagram></mxfile>